<?xml version="1.0" standalone="no"?>
<!DOCTYPE svg PUBLIC "-//W3C//DTD SVG 20010904//EN"
 "http://www.w3.org/TR/2001/REC-SVG-20010904/DTD/svg10.dtd">
<svg version="1.0" xmlns="http://www.w3.org/2000/svg"
 width="16.000000pt" height="16.000000pt" viewBox="0 0 16.000000 16.000000"
 preserveAspectRatio="xMidYMid meet">
<metadata>
Created by potrace 1.11, written by Peter Selinger 2001-2013
</metadata>
<g transform="translate(0.000000,16.000000) scale(0.004000,-0.004000)"
fill="#000000" stroke="none">
<path d="M1839 3986 c-2 -2 -34 -6 -71 -10 -36 -3 -72 -8 -80 -11 -7 -2 -29
-6 -48 -9 -19 -3 -80 -17 -135 -31 -92 -23 -126 -33 -180 -55 -11 -5 -38 -15
-60 -23 -326 -122 -645 -370 -872 -677 -192 -259 -332 -612 -370 -935 -10 -86
-11 -367 -1 -455 42 -381 222 -796 468 -1075 305 -346 700 -575 1145 -660 204
-40 515 -42 710 -5 567 108 1038 428 1343 912 57 90 152 277 166 328 4 14 11
34 16 45 34 76 93 315 107 440 10 87 10 367 1 455 -29 264 -124 549 -260 780
-49 83 -106 170 -117 180 -4 3 -25 31 -49 62 -60 82 -236 255 -333 329 -161
122 -329 217 -519 290 -83 33 -308 93 -385 104 -27 4 -66 9 -85 12 -39 6 -386
13 -391 9z"/>
</g>
</svg>
